# xmcd
#
# Track frame offsets:
#	150
#	1071
#	9889
#	16697
#	18388
#	27374
#	29061
#	31830
#	34425
#	38854
#	40318
#	50555
#	57684
#	60495
#	64798
#	67364
#	70153
#	72145
#	73346
#	77274
#	78461
#	85216
#	97054
#	104410
#	106736
#	110631
#	112539
#	114827
#	117141
#	120546
#	121618
#	124574
#	126012
#	131101
#	139951
#	149089
#	151954
#	155765
#	157937
#	161575
#	163890
#	167276
#	177054
#	185147
#	189048
#	191952
#	193279
#	194961
#	198059
#	200055
#	203134
#	208666
#	213432
#	218807
#	232957
#	242121
#	250441
#	256428
#	266313
#	282441
#	284138
#	290764
#	295279
#	300925
#	304730
#	307196
#	309063
#	311437
#	313290
#	316938
#	320776
#	324567
#	326898
#	328548
#	331889
#	334852
#	336566
#
# Disc length: 4516 seconds
#
# Revision: 0
# Processed by: cddbd v1.5.2PL0 Copyright (c) Steve Scherf et al.
# Submitted via: EZCDAudioConverter 1.3.4.1
#
DISCID=8f11a24d
DTITLE=國民小學（閩南語8）
DYEAR=2014
DGENRE=
TTITLE0=開場
TTITLE1=第一課，課文
TTITLE2=歌曲
TTITLE3=方音差
TTITLE4=輕鬆學語詞
TTITLE5=臆謎猜
TTITLE6=輕鬆學音標-鼻音韻尾
TTITLE7=音標練習
TTITLE8=聽看覓
TTITLE9=練習
TTITLE10=第二課，課文
TTITLE11=歌曲
TTITLE12=方音差
TTITLE13=輕鬆學語詞
TTITLE14=輕鬆學音標-自音韻尾
TTITLE15=音標練習
TTITLE16=聽看覓
TTITLE17=練習
TTITLE18=閩南語遊樂園
TTITLE19=複習一
TTITLE20=看圖聽故事
TTITLE21=第三課，課文
TTITLE22=歌曲
TTITLE23=方音差
TTITLE24=輕鬆學語詞
TTITLE25=做伙來開講
TTITLE26=輕鬆學音標-自音韻尾
TTITLE27=音標練習
TTITLE28=聽看覓
TTITLE29=練習
TTITLE30=閩南語遊樂園
TTITLE31=複習二
TTITLE32=看圖聽故事
TTITLE33=第四課，課文
TTITLE34=歌曲
TTITLE35=方音差
TTITLE36=輕鬆學語詞
TTITLE37=輕鬆學音標-鼻音韻尾
TTITLE38=音標練習
TTITLE39=聽看覓
TTITLE40=練習
TTITLE41=第五課，課文
TTITLE42=歌曲
TTITLE43=方音差
TTITLE44=輕鬆學語詞
TTITLE45=做伙念俗語
TTITLE46=輕鬆學音標-鼻音韻尾
TTITLE47=音標練習
TTITLE48=聽看覓
TTITLE49=練習
TTITLE50=閩南語遊樂園
TTITLE51=複習三
TTITLE52=看圖聽故事
TTITLE53=傳統念語-烏面祖師公．課文
TTITLE54=傳統念謠-烏面祖師公．歌曲
TTITLE55=歡喜來過節-媽媽的面．課文
TTITLE56=而喜來過即-媽媽的面．歌曲
TTITLE57=古詩吟唱-回鄉偶習．課文
TTITLE58=古詩吟唱-回鄉偶習．歌曲
TTITLE59=語詞分類，第一課
TTITLE60=語詞分類，第二課
TTITLE61=語詞分類，第三課
TTITLE62=語詞分類，第四課
TTITLE63=語詞分類，第五課
TTITLE64=親子CD習作，第一課
TTITLE65=親子CD習作，第一課
TTITLE66=親子CD習作，第二課
TTITLE67=親子CD習作，第二課
TTITLE68=親子CD習作，第三課
TTITLE69=親子CD習作，第三課
TTITLE70=親子CD習作，第四課
TTITLE71=親子CD習作，第四課
TTITLE72=親子CD習作，第五課
TTITLE73=親子CD習作，第五課
TTITLE74=複習一
TTITLE75=複習二
TTITLE76=複習三
EXTD=
EXTT0=
EXTT1=
EXTT2=
EXTT3=
EXTT4=
EXTT5=
EXTT6=
EXTT7=
EXTT8=
EXTT9=
EXTT10=
EXTT11=
EXTT12=
EXTT13=
EXTT14=
EXTT15=
EXTT16=
EXTT17=
EXTT18=
EXTT19=
EXTT20=
EXTT21=
EXTT22=
EXTT23=
EXTT24=
EXTT25=
EXTT26=
EXTT27=
EXTT28=
EXTT29=
EXTT30=
EXTT31=
EXTT32=
EXTT33=
EXTT34=
EXTT35=
EXTT36=
EXTT37=
EXTT38=
EXTT39=
EXTT40=
EXTT41=
EXTT42=
EXTT43=
EXTT44=
EXTT45=
EXTT46=
EXTT47=
EXTT48=
EXTT49=
EXTT50=
EXTT51=
EXTT52=
EXTT53=
EXTT54=
EXTT55=
EXTT56=
EXTT57=
EXTT58=
EXTT59=
EXTT60=
EXTT61=
EXTT62=
EXTT63=
EXTT64=
EXTT65=
EXTT66=
EXTT67=
EXTT68=
EXTT69=
EXTT70=
EXTT71=
EXTT72=
EXTT73=
EXTT74=
EXTT75=
EXTT76=
PLAYORDER=
